# xmcd
#
# Track frame offsets: 
#        150
#        20558
#        37485
#        50265
#        64959
#        83192
#        102208
#        117259
#        136366
#        153117
#        170664
#        190645
#        211985
#        226781
#        244888
#        265378
#        282845
#        304821
#        320302
#        336634
#
# Disc length: 4798 seconds
#
# Revision: 2
# Processed by: cddbd v1.5.2PL0 Copyright (c) Steve Scherf et al.
# Submitted via: ExactAudioCopy v1.0b3
#
DISCID=2412bc14
DTITLE=Various Artist - Die Hit-Giganten - Best of Ballads [CD 1)
DYEAR=2011
DGENRE=Pop
TTITLE0=Seal - Don't Cry
TTITLE1=Chicago - Hard to Say I'm Sorry
TTITLE2=Percy Sledge - When a Man Loves a Woman
TTITLE3=Alicia Keys - Fallin'
TTITLE4=Kate Winslet - What If
TTITLE5=Berlin - Take My Breath Away
TTITLE6=Simply Red - If You Don't Know Me By Now
TTITLE7=Michael Bolton - How Am I Supposed to Live Without you
TTITLE8=Shakira - Underneath Your Clothes
TTITLE9=Backstreet Boys - Show Me the Meaning of Being Lonely
TTITLE10=Tony Braxton - Un-Break My Heart
TTITLE11=Bill Medley and Jennifer Warnes - (I've Had) The Time of My Lif
TTITLE11=e
TTITLE12=Nilsson - Whitout You
TTITLE13=Air Supply - All Out of Love
TTITLE14=Terence Trent D'Arby - Sign Your Name
TTITLE15=The Bangels - Enternal Flame
TTITLE16=Ricky Martin - She's All I Ever Had
TTITLE17=Mr. Big - To Be With You
TTITLE18=Orange Blue - She's Got That Light
TTITLE19=Sinéad O'Connor - Nothing Compares to U
EXTD=
EXTT0=
EXTT1=
EXTT2=
EXTT3=
EXTT4=
EXTT5=
EXTT6=
EXTT7=
EXTT8=
EXTT9=
EXTT10=
EXTT11=
EXTT12=
EXTT13=
EXTT14=
EXTT15=
EXTT16=
EXTT17=
EXTT18=
EXTT19=
PLAYORDER=
